:SAMPLES-PER-SECOND 30
:FULLY-SPECIFIED
:DEGREES
454
root  3.37576 18.2974 -58.5611 -117.76 6.39035 -177.87
RightUpLeg  -65.9408 1.20951 5.88162
RightLeg  107.512 22.5723 -17.6551
RightFoot  4.18461 -0.445933 2.75555
RightToes  -5.82073e-011 -3.18055e-015 -2.98177e-016
Spine  31.0181 -2.77965 9.33094
Spine1  -8.36121 -0.0275244 -9.34402
HEad  -13.0807 -1.62827 5.86279
LeftShoulder1  -3.88251e-019 9.70628e-020 -3.87848e-018
LeftArm  -3.15985 -26.7015 -66.9857
LeftForeArm  -3.90726 -0.794887 -4.16672
LeftHand  -9.7999 -9.31778 69.8618
RightShoulder  1.43685 5.73436 6.40959
RightArm  1.51337 20.7108 72.7637
RightForeArm  4.70222 1.17959 -5.69716
RightHand  -10.9047 9.57477 -72.7217
LeftUpLeg  -64.3185 3.77824 -14.7198
LeftLeg  113.45 -19.6438 12.9494
LeftFoot  -17.1509 -0.654201 -17.0239
LeftToes  -2.27483e-011 -5.53417e-011 9.36564e-012
455
root  3.32546 18.2986 -58.5719 -117.788 6.28537 -177.881
RightUpLeg  -65.8966 1.19795 5.57259
RightLeg  107.861 22.3126 -16.8314
RightFoot  4.15591 -0.459827 2.85114
RightToes  -5.82073e-011 -3.18055e-015 -2.98177e-016
Spine  31.2255 -2.78477 9.37287
Spine1  -8.60304 -0.00209999 -9.26606
HEad  -13.0274 -1.74739 5.67158
LeftShoulder1  -3.88251e-019 9.70628e-020 -3.87848e-018
LeftArm  -3.09605 -26.6791 -67.1322
LeftForeArm  -3.95313 -0.814103 -4.26733
LeftHand  -9.80779 -9.32989 69.8595
RightShoulder  1.47126 5.80509 6.58568
RightArm  1.47112 20.7324 72.4089
RightForeArm  4.87367 1.21159 -5.71786
RightHand  -10.8818 9.60452 -72.4978
LeftUpLeg  -64.2933 3.39294 -14.0947
LeftLeg  114.057 -18.996 11.4583
LeftFoot  -17.249 -0.688318 -17.5405
LeftToes  -2.27483e-011 -5.53417e-011 9.36564e-012
456
root  3.27605 18.2943 -58.56 -117.922 6.17407 -177.93
RightUpLeg  -65.8212 1.13126 5.18847
RightLeg  108.375 21.9851 -15.759
RightFoot  4.20001 -0.47765 2.95869
RightToes  -5.82073e-011 -3.18055e-015 -2.98177e-016
Spine  31.4371 -2.8553 9.49777
Spine1  -8.77369 -0.0211795 -9.29685
HEad  -13.0615 -1.82732 5.51914
LeftShoulder1  -3.88251e-019 9.70628e-020 -3.87848e-018
LeftArm  -2.95095 -26.7146 -67.2143
LeftForeArm  -4.06337 -0.845946 -4.43444
LeftHand  -9.8498 -9.36353 69.9635
RightShoulder  1.51005 5.87409 6.79632
RightArm  1.34848 20.6972 72.0693
RightForeArm  5.08438 1.29701 -5.81363
RightHand  -10.8454 9.6239 -72.2437
LeftUpLeg  -64.1313 2.91136 -13.2134
LeftLeg  114.84 -18.1127 9.50584
LeftFoot  -17.4038 -0.708342 -17.4311
LeftToes  -2.27483e-011 -5.53417e-011 9.36564e-012
457
root  3.23844 18.2849 -58.5195 -118.116 6.05595 -177.953
RightUpLeg  -65.7295 1.07877 4.85973
RightLeg  108.945 21.6484 -14.6573
RightFoot  4.25027 -0.486056 3.00527
RightToes  -5.82073e-011 -3.18055e-015 -2.98177e-016
Spine  31.7054 -2.95082 9.64888
Spine1  -8.9751 -0.0641141 -9.39472
HEad  -13.1553 -1.85468 5.46575
LeftShoulder1  -3.88251e-019 9.70628e-020 -3.87848e-018
LeftArm  -2.85227 -26.7901 -67.3423
LeftForeArm  -4.03189 -0.85428 -4.47776
LeftHand  -9.88496 -9.37733 70.1042
RightShoulder  1.52611 5.85784 6.94184
RightArm  1.01994 20.4974 71.9585
RightForeArm  5.36832 1.40328 -6.0768
RightHand  -10.819 9.63288 -72.0774
LeftUpLeg  -63.9019 2.44156 -12.0957
LeftLeg  115.733 -16.9872 7.14895
LeftFoot  -17.6036 -0.711934 -16.7444
LeftToes  -2.27483e-011 -5.53417e-011 9.36564e-012
458
root  3.21532 18.2731 -58.4776 -118.208 5.91884 -177.947
RightUpLeg  -65.7003 1.10555 4.67031
RightLeg  109.384 21.3717 -13.7924
RightFoot  4.27195 -0.47174 2.91665
RightToes  -5.82073e-011 -3.18055e-015 -2.98177e-016
Spine  31.9351 -3.00218 9.69763
Spine1  -9.21416 -0.104402 -9.35152
HEad  -13.2589 -1.83741 5.37364
LeftShoulder1  -3.88251e-019 9.70628e-020 -3.87848e-018
LeftArm  -2.87429 -26.8307 -67.4852
LeftForeArm  -3.90534 -0.837507 -4.38921
LeftHand  -9.89529 -9.37276 70.1779
RightShoulder  1.50907 5.77962 6.91317
RightArm  0.674761 20.224 72.0311
RightForeArm  5.44892 1.54402 -6.34512
RightHand  -10.7942 9.604 -72.0562
LeftUpLeg  -63.7501 1.98885 -10.7779
LeftLeg  116.639 -15.5941 4.40449
LeftFoot  -17.8537 -0.723335 -16.1263
LeftToes  -2.27483e-011 -5.53417e-011 9.36564e-012
459
root  3.1994 18.264 -58.4528 -118.226 5.82738 -177.971
RightUpLeg  -65.7034 1.18197 4.50243
RightLeg  109.663 21.1799 -13.2186
RightFoot  4.25621 -0.461804 2.84425
RightToes  -5.82073e-011 -3.18055e-015 -2.98177e-016
Spine  32.1035 -3.01184 9.58162
Spine1  -9.41973 -0.155534 -9.1313
HEad  -13.3126 -1.75105 5.11023
LeftShoulder1  -3.88251e-019 9.70628e-020 -3.87848e-018
LeftArm  -2.92079 -26.8217 -67.48
LeftForeArm  -3.89467 -0.83344 -4.36788
LeftHand  -9.89642 -9.37811 70.1639
RightShoulder  1.48162 5.72972 6.76549
RightArm  0.547993 20.0812 72.12
RightForeArm  5.20446 1.62249 -6.41978
RightHand  -10.7637 9.54436 -72.1179
LeftUpLeg  -63.6241 1.52098 -9.45162
LeftLeg  117.387 -14.1041 1.61834
LeftFoot  -18.1512 -0.751518 -15.7976
LeftToes  -2.27483e-011 -5.53417e-011 9.36564e-012
460
root  3.1882 18.2585 -58.4339 -118.308 5.84799 -178.031
RightUpLeg  -65.6629 1.25757 4.24861
RightLeg  109.895 21.0494 -12.8102
RightFoot  4.20197 -0.481359 2.98284
RightToes  -5.82073e-011 -3.18055e-015 -2.98177e-016
Spine  32.2971 -3.02999 9.39025
Spine1  -9.58035 -0.221333 -8.98454
HEad  -13.2903 -1.59619 4.8215
LeftShoulder1  -3.88251e-019 9.70628e-020 -3.87848e-018
LeftArm  -2.89784 -26.8308 -67.337
LeftForeArm  -3.96913 -0.852616 -4.46863
LeftHand  -9.89473 -9.38938 70.1122
RightShoulder  1.48127 5.75594 6.72801
RightArm  0.653897 20.1367 72.095
RightForeArm  4.84476 1.55928 -6.29065
RightHand  -10.7341 9.49079 -72.162
LeftUpLeg  -63.4087 1.08269 -8.31412
LeftLeg  117.891 -12.7703 -0.792216
LeftFoot  -18.425 -0.773704 -15.448
LeftToes  -2.27483e-011 -5.53417e-011 9.36564e-012
